<mxfile host="app.diagrams.net" modified="2024-01-12T17:56:08.652Z" agent="Mozilla/5.0 (Windows NT 10.0; Win64; x64) AppleWebKit/537.36 (KHTML, like Gecko) Chrome/118.0.0.0 YaBrowser/23.11.0.0 Safari/537.36" etag="Qi6Tg9JxYRxlsDtvm5Hj" version="22.1.18" type="device">
  <diagram name="Страница — 1" id="3-DO5T_OI99sgI3wo8PP">
    <mxGraphModel dx="874" dy="471" grid="0" gridSize="10" guides="1" tooltips="1" connect="1" arrows="1" fold="1" page="0" pageScale="1" pageWidth="827" pageHeight="1169" background="#000000" math="0" shadow="1">
      <root>
        <mxCell id="0" />
        <mxCell id="1" parent="0" />
        <mxCell id="sNvMC9tmYBJjPTIn8PPV-1" value="TelegramBot" style="swimlane;whiteSpace=wrap;html=1;strokeColor=#FFFFFF;fontColor=#000000;labelBackgroundColor=none;shadow=1;" parent="1" vertex="1">
          <mxGeometry x="310" y="60" width="220" height="400" as="geometry" />
        </mxCell>
        <mxCell id="sNvMC9tmYBJjPTIn8PPV-3" value="Просмотр теории" style="ellipse;whiteSpace=wrap;html=1;strokeColor=#FFFFFF;fontColor=#FFFFFF;fillColor=#000000;shadow=1;" parent="sNvMC9tmYBJjPTIn8PPV-1" vertex="1">
          <mxGeometry x="50" y="90" width="120" height="50" as="geometry" />
        </mxCell>
        <mxCell id="sNvMC9tmYBJjPTIn8PPV-6" value="Решение задач" style="ellipse;whiteSpace=wrap;html=1;strokeColor=#FFFFFF;fontColor=#FFFFFF;fillColor=#000000;shadow=1;" parent="sNvMC9tmYBJjPTIn8PPV-1" vertex="1">
          <mxGeometry x="50" y="150" width="120" height="50" as="geometry" />
        </mxCell>
        <mxCell id="sNvMC9tmYBJjPTIn8PPV-5" value="Смена языка" style="ellipse;whiteSpace=wrap;html=1;strokeColor=#FFFFFF;fontColor=#FFFFFF;fillColor=#000000;shadow=1;" parent="sNvMC9tmYBJjPTIn8PPV-1" vertex="1">
          <mxGeometry x="50" y="210" width="120" height="50" as="geometry" />
        </mxCell>
        <mxCell id="sNvMC9tmYBJjPTIn8PPV-4" value="Прогрес" style="ellipse;whiteSpace=wrap;html=1;strokeColor=#FFFFFF;fontColor=#FFFFFF;fillColor=#000000;shadow=1;" parent="sNvMC9tmYBJjPTIn8PPV-1" vertex="1">
          <mxGeometry x="50" y="270" width="120" height="50" as="geometry" />
        </mxCell>
        <mxCell id="sNvMC9tmYBJjPTIn8PPV-7" value="Отправка заявок в ТехПоддержку" style="ellipse;whiteSpace=wrap;html=1;strokeColor=#FFFFFF;fontColor=#FFFFFF;fillColor=#000000;shadow=1;" parent="sNvMC9tmYBJjPTIn8PPV-1" vertex="1">
          <mxGeometry x="50" y="330" width="120" height="50" as="geometry" />
        </mxCell>
        <mxCell id="sNvMC9tmYBJjPTIn8PPV-8" value="Выбор темы" style="ellipse;whiteSpace=wrap;html=1;strokeColor=#FFFFFF;fontColor=#FFFFFF;fillColor=#000000;shadow=1;" parent="sNvMC9tmYBJjPTIn8PPV-1" vertex="1">
          <mxGeometry x="50" y="30" width="120" height="50" as="geometry" />
        </mxCell>
        <mxCell id="sNvMC9tmYBJjPTIn8PPV-2" value="Пользователь" style="shape=umlActor;verticalLabelPosition=bottom;verticalAlign=top;html=1;outlineConnect=0;strokeColor=#FFFFFF;fontColor=#FFFFFF;shadow=1;" parent="1" vertex="1">
          <mxGeometry x="200" y="230" width="30" height="60" as="geometry" />
        </mxCell>
        <mxCell id="sNvMC9tmYBJjPTIn8PPV-9" value="" style="endArrow=none;html=1;rounded=0;entryX=0;entryY=0.5;entryDx=0;entryDy=0;strokeColor=#FFFFFF;fontColor=#FFFFFF;shadow=1;" parent="1" target="sNvMC9tmYBJjPTIn8PPV-8" edge="1">
          <mxGeometry width="50" height="50" relative="1" as="geometry">
            <mxPoint x="240" y="260" as="sourcePoint" />
            <mxPoint x="290" y="210" as="targetPoint" />
          </mxGeometry>
        </mxCell>
        <mxCell id="sNvMC9tmYBJjPTIn8PPV-10" value="" style="endArrow=none;html=1;rounded=0;entryX=0;entryY=0.5;entryDx=0;entryDy=0;strokeColor=#FFFFFF;fontColor=#FFFFFF;shadow=1;" parent="1" target="sNvMC9tmYBJjPTIn8PPV-3" edge="1">
          <mxGeometry width="50" height="50" relative="1" as="geometry">
            <mxPoint x="240" y="260" as="sourcePoint" />
            <mxPoint x="300" y="250" as="targetPoint" />
          </mxGeometry>
        </mxCell>
        <mxCell id="sNvMC9tmYBJjPTIn8PPV-11" value="" style="endArrow=none;html=1;rounded=0;entryX=0;entryY=0.5;entryDx=0;entryDy=0;strokeColor=#FFFFFF;fontColor=#FFFFFF;shadow=1;" parent="1" target="sNvMC9tmYBJjPTIn8PPV-6" edge="1">
          <mxGeometry width="50" height="50" relative="1" as="geometry">
            <mxPoint x="240" y="260" as="sourcePoint" />
            <mxPoint x="300" y="250" as="targetPoint" />
          </mxGeometry>
        </mxCell>
        <mxCell id="sNvMC9tmYBJjPTIn8PPV-12" value="" style="endArrow=none;html=1;rounded=0;entryX=0;entryY=0.5;entryDx=0;entryDy=0;strokeColor=#FFFFFF;fontColor=#FFFFFF;shadow=1;" parent="1" target="sNvMC9tmYBJjPTIn8PPV-5" edge="1">
          <mxGeometry width="50" height="50" relative="1" as="geometry">
            <mxPoint x="240" y="260" as="sourcePoint" />
            <mxPoint x="280" y="280" as="targetPoint" />
          </mxGeometry>
        </mxCell>
        <mxCell id="sNvMC9tmYBJjPTIn8PPV-13" value="" style="endArrow=none;html=1;rounded=0;entryX=0;entryY=0.5;entryDx=0;entryDy=0;strokeColor=#FFFFFF;fontColor=#FFFFFF;shadow=1;" parent="1" target="sNvMC9tmYBJjPTIn8PPV-4" edge="1">
          <mxGeometry width="50" height="50" relative="1" as="geometry">
            <mxPoint x="240" y="260" as="sourcePoint" />
            <mxPoint x="280" y="310" as="targetPoint" />
          </mxGeometry>
        </mxCell>
        <mxCell id="sNvMC9tmYBJjPTIn8PPV-14" value="" style="endArrow=none;html=1;rounded=0;entryX=0;entryY=0.5;entryDx=0;entryDy=0;strokeColor=#FFFFFF;fontColor=#FFFFFF;shadow=1;" parent="1" target="sNvMC9tmYBJjPTIn8PPV-7" edge="1">
          <mxGeometry width="50" height="50" relative="1" as="geometry">
            <mxPoint x="240" y="260" as="sourcePoint" />
            <mxPoint x="270" y="340" as="targetPoint" />
          </mxGeometry>
        </mxCell>
      </root>
    </mxGraphModel>
  </diagram>
</mxfile>
